<svg xmlns="http://www.w3.org/2000/svg" xmlns:xlink="http://www.w3.org/1999/xlink" width="2400" zoomAndPan="magnify" viewBox="0 0 1800 1799.999925" height="2400" preserveAspectRatio="xMidYMid meet" version="1.0"><path fill="#00abf0" d="M 606.097656 1273.34375 L 606.097656 1382.902344 L 109.921875 1152.390625 L 109.921875 1063.492188 L 606.097656 832.972656 L 606.097656 942.5625 L 230.859375 1106.902344 L 230.859375 1108.972656 Z M 900.769531 711.226562 L 71.007812 711.226562 C 31.835938 711.226562 0.078125 742.980469 0.078125 782.171875 L 0.078125 1433.726562 C 0.078125 1472.890625 31.835938 1504.648438 71.007812 1504.648438 L 670.429688 1504.648438 L 900.769531 711.226562 " fill-opacity="1" fill-rule="nonzero"/><path fill="#112e42" d="M 1690.273438 739.414062 L 1194.113281 966.824219 L 1194.113281 857.234375 L 1577.609375 692.894531 L 1577.609375 690.824219 L 1194.113281 526.453125 L 1194.113281 416.894531 L 1690.273438 644.308594 Z M 1131.128906 295.148438 L 900.769531 1088.574219 L 1729.195312 1088.574219 C 1768.367188 1088.574219 1800.125 1056.816406 1800.125 1017.625 L 1800.125 366.070312 C 1800.125 326.90625 1768.367188 295.148438 1729.195312 295.148438 L 1131.128906 295.148438 " fill-opacity="1" fill-rule="nonzero"/></svg>